<svg width="41" height="41" viewBox="0 0 41 41" fill="none" xmlns="http://www.w3.org/2000/svg">
<g clip-path="url(#clip0_9_78)">
<path d="M29.0417 7.68752H11.9583M29.0417 33.3125H11.9583M7.68749 29.0417V11.9584M33.3125 29.0417V11.9584M33.3125 11.9584C34.4452 11.9584 35.5315 11.5084 36.3324 10.7075C37.1334 9.90652 37.5833 8.82022 37.5833 7.68752C37.5833 6.55482 37.1334 5.46852 36.3324 4.66759C35.5315 3.86665 34.4452 3.41669 33.3125 3.41669C32.1798 3.41669 31.0935 3.86665 30.2926 4.66759C29.4916 5.46852 29.0417 6.55482 29.0417 7.68752C29.0417 8.82022 29.4916 9.90652 30.2926 10.7075C31.0935 11.5084 32.1798 11.9584 33.3125 11.9584V11.9584ZM7.68749 37.5834C8.82019 37.5834 9.90649 37.1334 10.7074 36.3325C11.5084 35.5315 11.9583 34.4452 11.9583 33.3125C11.9583 32.1798 11.5084 31.0935 10.7074 30.2926C9.90649 29.4916 8.82019 29.0417 7.68749 29.0417C6.55479 29.0417 5.46849 29.4916 4.66755 30.2926C3.86662 31.0935 3.41666 32.1798 3.41666 33.3125C3.41666 34.4452 3.86662 35.5315 4.66755 36.3325C5.46849 37.1334 6.55479 37.5834 7.68749 37.5834V37.5834ZM11.9583 3.41669H3.41666V11.9584H11.9583V3.41669ZM37.5833 29.0417H29.0417V37.5834H37.5833V29.0417Z" stroke="#00E0FF" stroke-width="5" stroke-linecap="round" stroke-linejoin="round"/>
</g>
<defs>
<clipPath id="clip0_9_78">
<rect width="41" height="41" fill="white"/>
</clipPath>
</defs>
</svg>
