<svg width="56" height="25" viewBox="0 0 56 25" fill="none" xmlns="http://www.w3.org/2000/svg">
<path d="M11.628 22.28C10.6573 20.6747 9.192 19.144 7.232 17.688C5.272 16.232 2.948 14.9253 0.26 13.768C2.948 12.6107 5.272 11.304 7.232 9.848C9.192 8.392 10.6573 6.86133 11.628 5.256V8.616C9.96667 10.5387 7.736 12.256 4.936 13.768C7.736 15.28 9.96667 16.9973 11.628 18.92V22.28ZM31.3684 0.103998H34.2804L23.9204 24.212H21.0084L31.3684 0.103998ZM43.6644 18.92C45.3257 16.9973 47.5564 15.28 50.3564 13.768C47.5564 12.256 45.3257 10.5387 43.6644 8.616V5.256C44.635 6.86133 46.1004 8.392 48.0604 9.848C50.0204 11.304 52.3444 12.6107 55.0324 13.768C52.3444 14.9253 50.0204 16.232 48.0604 17.688C46.1004 19.144 44.635 20.6747 43.6644 22.28V18.92Z" fill="#24FF00"/>
<path d="M11.628 22.28L10.7723 22.7974L12.628 25.8665V22.28H11.628ZM7.232 17.688L6.63568 18.4907L7.232 17.688ZM0.26 13.768L-0.135458 12.8495L-2.26871 13.768L-0.135458 14.6865L0.26 13.768ZM7.232 9.848L6.63568 9.04526L7.232 9.848ZM11.628 5.256H12.628V1.66948L10.7723 4.73858L11.628 5.256ZM11.628 8.616L12.3847 9.26981L12.628 8.98819V8.616H11.628ZM4.936 13.768L4.46085 12.8881L2.8314 13.768L4.46085 14.6479L4.936 13.768ZM11.628 18.92H12.628V18.5478L12.3847 18.2662L11.628 18.92ZM12.4837 21.7626C11.429 20.0182 9.86258 18.3964 7.82832 16.8853L6.63568 18.4907C8.52142 19.8916 9.88565 21.3311 10.7723 22.7974L12.4837 21.7626ZM7.82832 16.8853C5.79524 15.375 3.40109 14.0317 0.655458 12.8495L-0.135458 14.6865C2.49491 15.819 4.74876 17.089 6.63568 18.4907L7.82832 16.8853ZM0.655458 14.6865C3.40109 13.5043 5.79524 12.161 7.82832 10.6507L6.63568 9.04526C4.74876 10.447 2.49491 11.717 -0.135458 12.8495L0.655458 14.6865ZM7.82832 10.6507C9.86258 9.13958 11.429 7.51775 12.4837 5.77342L10.7723 4.73858C9.88565 6.20491 8.52142 7.64441 6.63568 9.04526L7.82832 10.6507ZM10.628 5.256V8.616H12.628V5.256H10.628ZM10.8713 7.96219C9.30655 9.77313 7.17997 11.4198 4.46085 12.8881L5.41115 14.6479C8.29203 13.0922 10.6268 11.3042 12.3847 9.26981L10.8713 7.96219ZM4.46085 14.6479C7.17997 16.1162 9.30655 17.7629 10.8713 19.5738L12.3847 18.2662C10.6268 16.2318 8.29203 14.4438 5.41115 12.8881L4.46085 14.6479ZM10.628 18.92V22.28H12.628V18.92H10.628ZM31.3684 0.103998V-0.896002H30.7097L30.4497 -0.290823L31.3684 0.103998ZM34.2804 0.103998L35.1992 0.498819L35.7986 -0.896002H34.2804V0.103998ZM23.9204 24.212V25.212H24.5791L24.8392 24.6068L23.9204 24.212ZM21.0084 24.212L20.0897 23.8172L19.4903 25.212H21.0084V24.212ZM31.3684 1.104H34.2804V-0.896002H31.3684V1.104ZM33.3617 -0.290823L23.0017 23.8172L24.8392 24.6068L35.1992 0.498819L33.3617 -0.290823ZM23.9204 23.212H21.0084V25.212H23.9204V23.212ZM21.9272 24.6068L32.2872 0.498819L30.4497 -0.290823L20.0897 23.8172L21.9272 24.6068ZM43.6644 18.92L42.9077 18.2662L42.6644 18.5478V18.92H43.6644ZM50.3564 13.768L50.8315 14.6479L52.461 13.768L50.8315 12.8881L50.3564 13.768ZM43.6644 8.616H42.6644V8.98819L42.9077 9.26981L43.6644 8.616ZM43.6644 5.256L44.5201 4.73858L42.6644 1.66948V5.256H43.6644ZM48.0604 9.848L47.4641 10.6507L48.0604 9.848ZM55.0324 13.768L55.4278 14.6865L57.5611 13.768L55.4278 12.8495L55.0324 13.768ZM48.0604 17.688L47.4641 16.8853L48.0604 17.688ZM43.6644 22.28H42.6644V25.8665L44.5201 22.7974L43.6644 22.28ZM44.421 19.5738C45.9858 17.7629 48.1124 16.1162 50.8315 14.6479L49.8812 12.8881C47.0003 14.4438 44.6656 16.2318 42.9077 18.2662L44.421 19.5738ZM50.8315 12.8881C48.1124 11.4198 45.9858 9.77313 44.421 7.96219L42.9077 9.26981C44.6656 11.3042 47.0003 13.0922 49.8812 14.6479L50.8315 12.8881ZM44.6644 8.616V5.256H42.6644V8.616H44.6644ZM42.8086 5.77342C43.8634 7.51775 45.4298 9.13958 47.4641 10.6507L48.6567 9.04526C46.771 7.64441 45.4067 6.20491 44.5201 4.73858L42.8086 5.77342ZM47.4641 10.6507C49.4971 12.161 51.8913 13.5043 54.6369 14.6865L55.4278 12.8495C52.7975 11.717 50.5436 10.447 48.6567 9.04526L47.4641 10.6507ZM54.6369 12.8495C51.8913 14.0317 49.4971 15.375 47.4641 16.8853L48.6567 18.4907C50.5436 17.089 52.7975 15.819 55.4278 14.6865L54.6369 12.8495ZM47.4641 16.8853C45.4298 18.3964 43.8634 20.0182 42.8086 21.7626L44.5201 22.7974C45.4067 21.3311 46.771 19.8916 48.6567 18.4907L47.4641 16.8853ZM44.6644 22.28V18.92H42.6644V22.28H44.6644Z" fill="#24FF00"/>
</svg>
