<svg width="67" height="37" viewBox="0 0 67 37" fill="none" xmlns="http://www.w3.org/2000/svg">
<path d="M8.372 29C5.98267 29 4.26533 28.4773 3.22 27.432C2.19333 26.3867 1.68 24.8747 1.68 22.896V9.4H5.628V22.896C5.628 23.9227 5.852 24.688 6.3 25.192C6.748 25.6773 7.43867 25.92 8.372 25.92H14.644V29H8.372ZM40.2778 29.336C37.6084 29.336 35.5644 28.7387 34.1458 27.544C32.7458 26.3307 32.0458 24.548 32.0458 22.196V16.204C32.0458 13.852 32.7458 12.0787 34.1458 10.884C35.5644 9.67067 37.6084 9.064 40.2778 9.064C42.2004 9.064 43.7684 9.372 44.9818 9.988C46.2138 10.604 47.1844 11.5187 47.8938 12.732L44.8978 14.776C44.3191 13.8427 43.7031 13.1707 43.0498 12.76C42.3964 12.3493 41.4724 12.144 40.2778 12.144C38.7844 12.144 37.6924 12.4893 37.0018 13.18C36.3298 13.852 35.9938 14.86 35.9938 16.204V22.196C35.9938 23.54 36.3298 24.5573 37.0018 25.248C37.6924 25.92 38.7844 26.256 40.2778 26.256C41.5844 26.256 42.5738 26.0413 43.2458 25.612C43.9364 25.164 44.2818 24.52 44.2818 23.68V22.812C44.2818 21.6547 43.7498 21.076 42.6858 21.076H39.4938V17.996H43.8058C45.2991 17.996 46.4004 18.3413 47.1098 19.032C47.8191 19.7227 48.1738 20.796 48.1738 22.252V23.96C48.1738 25.64 47.4644 26.956 46.0458 27.908C44.6271 28.86 42.7044 29.336 40.2778 29.336ZM56.961 29.336C54.3663 29.336 52.3783 28.7387 50.997 27.544C49.6343 26.3307 48.953 24.548 48.953 22.196V16.204C48.953 13.852 49.6343 12.0787 50.997 10.884C52.3783 9.67067 54.3663 9.064 56.961 9.064C59.5556 9.064 61.5343 9.67067 62.897 10.884C64.2783 12.0787 64.969 13.852 64.969 16.204V22.196C64.969 24.548 64.2783 26.3307 62.897 27.544C61.5343 28.7387 59.5556 29.336 56.961 29.336ZM56.961 26.256C58.2676 26.256 59.2663 25.9107 59.957 25.22C60.6663 24.5107 61.021 23.5027 61.021 22.196V16.204C61.021 14.8973 60.6663 13.8987 59.957 13.208C59.2663 12.4987 58.2676 12.144 56.961 12.144C55.6543 12.144 54.6463 12.4987 53.937 13.208C53.2463 13.8987 52.901 14.8973 52.901 16.204V22.196C52.901 23.5027 53.2463 24.5107 53.937 25.22C54.6463 25.9107 55.6543 26.256 56.961 26.256Z" fill="black"/>
<path d="M22.9278 29.336C20.3332 29.336 18.3452 28.7387 16.9638 27.544C15.6012 26.3307 14.9198 24.548 14.9198 22.196V16.204C14.9198 13.852 15.6012 12.0787 16.9638 10.884C18.3452 9.67067 20.3332 9.064 22.9278 9.064C25.5225 9.064 27.5012 9.67067 28.8638 10.884C30.2452 12.0787 30.9358 13.852 30.9358 16.204V22.196C30.9358 24.548 30.2452 26.3307 28.8638 27.544C27.5012 28.7387 25.5225 29.336 22.9278 29.336ZM22.9278 26.256C24.2345 26.256 25.2332 25.9107 25.9238 25.22C26.6332 24.5107 26.9878 23.5027 26.9878 22.196V16.204C26.9878 14.8973 26.6332 13.8987 25.9238 13.208C25.2332 12.4987 24.2345 12.144 22.9278 12.144C21.6212 12.144 20.6132 12.4987 19.9038 13.208C19.2132 13.8987 18.8678 14.8973 18.8678 16.204V22.196C18.8678 23.5027 19.2132 24.5107 19.9038 25.22C20.6132 25.9107 21.6212 26.256 22.9278 26.256Z" fill="#FF0000"/>
<path d="M26 34.9743C26 36.0931 24.6569 37 23 37C21.3431 37 20 36.0931 20 34.9743C21.8 32.9487 21.9368 32.2923 23.0684 31C24.2684 32.2154 24.2 32.9487 26 34.9743Z" fill="#FF0000"/>
</svg>
