<svg width="65" height="25" viewBox="0 0 65 25" fill="none" xmlns="http://www.w3.org/2000/svg">
<path d="M8.436 22.364C5.87867 22.364 3.94667 21.8227 2.64 20.74C1.33333 19.6387 0.68 18.1173 0.68 16.176V2.4H4.628V16.176C4.628 18.248 5.89733 19.284 8.436 19.284C10.9747 19.284 12.244 18.248 12.244 16.176V2.4H16.192V16.176C16.192 18.1173 15.5387 19.6387 14.232 20.74C12.9253 21.8227 10.9933 22.364 8.436 22.364ZM26.5752 12.452L32.5112 22H28.0312L24.0272 15.532L20.0232 22H15.6272L21.8432 12.004L15.9072 2.4H20.3592L24.3912 8.924L28.4232 2.4H32.7912L26.5752 12.452Z" fill="#FF0000"/>
<path d="M40.7791 0.103998H43.6911L33.3311 24.212H30.4191L40.7791 0.103998ZM50.7433 22.364C48.186 22.364 46.254 21.8227 44.9473 20.74C43.6407 19.6387 42.9873 18.1173 42.9873 16.176V2.4H46.9353V16.176C46.9353 18.248 48.2047 19.284 50.7433 19.284C53.282 19.284 54.5513 18.248 54.5513 16.176V2.4H58.4993V16.176C58.4993 18.1173 57.846 19.6387 56.5393 20.74C55.2327 21.8227 53.3007 22.364 50.7433 22.364ZM60.3145 2.4H64.2625V22H60.3145V2.4Z" fill="black"/>
</svg>
