<svg width="50" height="50" viewBox="0 0 50 50" fill="none" xmlns="http://www.w3.org/2000/svg">
<path d="M25 4.16669C13.5208 4.16669 4.16666 13.5209 4.16666 25C4.16666 36.4792 13.5208 45.8334 25 45.8334C36.4792 45.8334 45.8333 36.4792 45.8333 25C45.8333 13.5209 36.4792 4.16669 25 4.16669ZM6.27083 25C6.27083 22.2917 6.85416 19.7084 7.89583 17.375L16.8333 41.8542C10.5833 38.8125 6.27083 32.4167 6.27083 25ZM25 43.7292C23.1667 43.7292 21.3958 43.4584 19.7083 42.9584L25.3333 26.625L31.0833 42.3959C31.125 42.4792 31.1667 42.5834 31.2083 42.6459C29.2708 43.3542 27.1875 43.7292 25 43.7292ZM27.5833 16.2084C28.7083 16.1459 29.7292 16.0209 29.7292 16.0209C30.7292 15.8959 30.625 14.4167 29.6042 14.4792C29.6042 14.4792 26.5625 14.7084 24.6042 14.7084C22.7708 14.7084 19.6667 14.4792 19.6667 14.4792C18.6667 14.4375 18.5417 15.9792 19.5625 16.0417C19.5625 16.0417 20.5208 16.1667 21.5208 16.2292L24.4375 24.2292L20.3333 36.5209L13.5208 16.2084C14.6458 16.1667 15.6667 16.0417 15.6667 16.0417C16.6667 15.9167 16.5625 14.4375 15.5417 14.5C15.5417 14.5 12.5 14.7292 10.5417 14.7292C10.1875 14.7292 9.77083 14.7292 9.33333 14.7084C12.7083 9.62502 18.4583 6.27085 25 6.27085C29.875 6.27085 34.3125 8.12502 37.6458 11.1875C37.5625 11.1875 37.4792 11.1667 37.3958 11.1667C35.5625 11.1667 34.25 12.7709 34.25 14.5C34.25 16.0417 35.1458 17.3542 36.0833 18.8959C36.7917 20.1459 37.625 21.75 37.625 24.0625C37.625 25.6667 37 27.5209 36.2083 30.125L34.3333 36.375L27.5833 16.2084ZM41.4375 16.0209C43.7775 20.3034 44.3531 25.3304 43.0418 30.0311C41.7304 34.7317 38.6357 38.7347 34.4167 41.1875L40.1458 24.6459C41.2083 21.9792 41.5625 19.8334 41.5625 17.9375C41.5625 17.25 41.5208 16.6042 41.4375 16.0209Z" fill="#4195D1"/>
</svg>
